<mxfile host="app.diagrams.net" modified="2024-05-17T02:30:17.288Z" agent="Mozilla/5.0 (Windows NT 10.0; Win64; x64) AppleWebKit/537.36 (KHTML, like Gecko) Chrome/124.0.0.0 Safari/537.36" etag="MaXsXC4FQdwVoGMyylCI" version="24.4.3" type="github">
  <diagram name="Page-1" id="74e2e168-ea6b-b213-b513-2b3c1d86103e">
    <mxGraphModel dx="1257" dy="1459" grid="1" gridSize="10" guides="1" tooltips="1" connect="1" arrows="1" fold="1" page="1" pageScale="1" pageWidth="1100" pageHeight="850" background="none" math="0" shadow="0">
      <root>
        <mxCell id="0" />
        <mxCell id="1" parent="0" />
        <mxCell id="BsSyplJfo_TApb6AKw6E-6" value="Sistema de reserva" style="swimlane;childLayout=stackLayout;resizeParent=1;resizeParentMax=0;startSize=20;html=1;" vertex="1" parent="1">
          <mxGeometry x="280" y="-40" width="360" height="520" as="geometry" />
        </mxCell>
        <mxCell id="BsSyplJfo_TApb6AKw6E-7" value="Cliente" style="swimlane;startSize=20;html=1;" vertex="1" parent="BsSyplJfo_TApb6AKw6E-6">
          <mxGeometry y="20" width="120" height="500" as="geometry" />
        </mxCell>
        <mxCell id="BsSyplJfo_TApb6AKw6E-11" value="" style="edgeStyle=orthogonalEdgeStyle;html=1;verticalAlign=bottom;endArrow=open;endSize=8;strokeColor=#99CCFF;rounded=0;strokeWidth=2;" edge="1" parent="BsSyplJfo_TApb6AKw6E-7">
          <mxGeometry relative="1" as="geometry">
            <mxPoint x="59.499999999999545" y="70" as="targetPoint" />
            <mxPoint x="59.499999999999545" y="40" as="sourcePoint" />
            <Array as="points">
              <mxPoint x="59.5" y="60" />
              <mxPoint x="59.5" y="60" />
            </Array>
          </mxGeometry>
        </mxCell>
        <mxCell id="BsSyplJfo_TApb6AKw6E-10" value="" style="ellipse;html=1;shape=startState;fillColor=#FAFAFA;strokeColor=#99CCFF;strokeWidth=2;" vertex="1" parent="BsSyplJfo_TApb6AKw6E-7">
          <mxGeometry x="44.999999999999545" y="20" width="30" height="30" as="geometry" />
        </mxCell>
        <mxCell id="BsSyplJfo_TApb6AKw6E-28" value="" style="edgeStyle=orthogonalEdgeStyle;rounded=0;orthogonalLoop=1;jettySize=auto;html=1;strokeWidth=2;strokeColor=#99CCFF;" edge="1" parent="BsSyplJfo_TApb6AKw6E-7" source="BsSyplJfo_TApb6AKw6E-12">
          <mxGeometry relative="1" as="geometry">
            <mxPoint x="60" y="130" as="targetPoint" />
          </mxGeometry>
        </mxCell>
        <mxCell id="BsSyplJfo_TApb6AKw6E-12" value="Ingresa a la página" style="rounded=1;whiteSpace=wrap;html=1;" vertex="1" parent="BsSyplJfo_TApb6AKw6E-7">
          <mxGeometry x="17.5" y="70" width="85" height="30" as="geometry" />
        </mxCell>
        <mxCell id="BsSyplJfo_TApb6AKw6E-30" value="" style="edgeStyle=orthogonalEdgeStyle;rounded=0;orthogonalLoop=1;jettySize=auto;html=1;strokeColor=#99CCFF;strokeWidth=2;" edge="1" parent="BsSyplJfo_TApb6AKw6E-7" source="BsSyplJfo_TApb6AKw6E-16">
          <mxGeometry relative="1" as="geometry">
            <mxPoint x="60" y="330" as="targetPoint" />
          </mxGeometry>
        </mxCell>
        <mxCell id="BsSyplJfo_TApb6AKw6E-16" value="Entrega datos de habitaciones disponibles más especificaciones" style="rounded=1;whiteSpace=wrap;html=1;" vertex="1" parent="BsSyplJfo_TApb6AKw6E-7">
          <mxGeometry x="12.5" y="240" width="95" height="70" as="geometry" />
        </mxCell>
        <mxCell id="BsSyplJfo_TApb6AKw6E-27" value="Selecciona la cantidad de noches y personas incluidas" style="whiteSpace=wrap;html=1;rounded=1;" vertex="1" parent="BsSyplJfo_TApb6AKw6E-7">
          <mxGeometry x="10" y="130" width="100" height="80" as="geometry" />
        </mxCell>
        <mxCell id="BsSyplJfo_TApb6AKw6E-29" value="Selecciona una habitación" style="whiteSpace=wrap;html=1;rounded=1;" vertex="1" parent="BsSyplJfo_TApb6AKw6E-7">
          <mxGeometry x="15" y="330" width="90" height="50" as="geometry" />
        </mxCell>
        <mxCell id="BsSyplJfo_TApb6AKw6E-40" value="Intente otra vez" style="whiteSpace=wrap;html=1;rounded=1;" vertex="1" parent="BsSyplJfo_TApb6AKw6E-7">
          <mxGeometry x="15" y="430" width="90" height="50" as="geometry" />
        </mxCell>
        <mxCell id="BsSyplJfo_TApb6AKw6E-8" value="Sistema" style="swimlane;startSize=20;html=1;" vertex="1" parent="BsSyplJfo_TApb6AKw6E-6">
          <mxGeometry x="120" y="20" width="120" height="500" as="geometry" />
        </mxCell>
        <mxCell id="BsSyplJfo_TApb6AKw6E-20" value="Genera una búsqueda de habitaciones disponibles" style="rounded=1;whiteSpace=wrap;html=1;" vertex="1" parent="BsSyplJfo_TApb6AKw6E-8">
          <mxGeometry x="15" y="136.25" width="90" height="67.5" as="geometry" />
        </mxCell>
        <mxCell id="BsSyplJfo_TApb6AKw6E-34" value="¿Confirma reserva?" style="rhombus;whiteSpace=wrap;html=1;rounded=1;" vertex="1" parent="BsSyplJfo_TApb6AKw6E-8">
          <mxGeometry x="20" y="315" width="80" height="80" as="geometry" />
        </mxCell>
        <mxCell id="BsSyplJfo_TApb6AKw6E-9" value="Hotel" style="swimlane;startSize=20;html=1;" vertex="1" parent="BsSyplJfo_TApb6AKw6E-6">
          <mxGeometry x="240" y="20" width="120" height="500" as="geometry" />
        </mxCell>
        <mxCell id="BsSyplJfo_TApb6AKw6E-18" value="Aviso de navegación" style="rounded=1;whiteSpace=wrap;html=1;" vertex="1" parent="BsSyplJfo_TApb6AKw6E-9">
          <mxGeometry x="15" y="145" width="90" height="50" as="geometry" />
        </mxCell>
        <mxCell id="BsSyplJfo_TApb6AKw6E-36" value="Recibe reserva de habitación" style="whiteSpace=wrap;html=1;rounded=1;" vertex="1" parent="BsSyplJfo_TApb6AKw6E-9">
          <mxGeometry x="25" y="325" width="85" height="60" as="geometry" />
        </mxCell>
        <mxCell id="BsSyplJfo_TApb6AKw6E-19" value="" style="endArrow=classic;html=1;rounded=0;strokeColor=#99CCFF;strokeWidth=2;entryX=0;entryY=0.5;entryDx=0;entryDy=0;exitX=1;exitY=0.5;exitDx=0;exitDy=0;" edge="1" parent="BsSyplJfo_TApb6AKw6E-6" source="BsSyplJfo_TApb6AKw6E-20" target="BsSyplJfo_TApb6AKw6E-18">
          <mxGeometry width="50" height="50" relative="1" as="geometry">
            <mxPoint x="140" y="250" as="sourcePoint" />
            <mxPoint x="190" y="200" as="targetPoint" />
          </mxGeometry>
        </mxCell>
        <mxCell id="BsSyplJfo_TApb6AKw6E-17" value="" style="endArrow=classic;html=1;rounded=0;strokeWidth=2;strokeColor=#99CCFF;exitX=1;exitY=0.5;exitDx=0;exitDy=0;entryX=0;entryY=0.5;entryDx=0;entryDy=0;" edge="1" parent="BsSyplJfo_TApb6AKw6E-6" source="BsSyplJfo_TApb6AKw6E-27" target="BsSyplJfo_TApb6AKw6E-20">
          <mxGeometry width="50" height="50" relative="1" as="geometry">
            <mxPoint x="140" y="250" as="sourcePoint" />
            <mxPoint x="190" y="200" as="targetPoint" />
          </mxGeometry>
        </mxCell>
        <mxCell id="BsSyplJfo_TApb6AKw6E-35" value="" style="edgeStyle=orthogonalEdgeStyle;rounded=0;orthogonalLoop=1;jettySize=auto;html=1;strokeColor=#99CCFF;strokeWidth=2;" edge="1" parent="BsSyplJfo_TApb6AKw6E-6" source="BsSyplJfo_TApb6AKw6E-29" target="BsSyplJfo_TApb6AKw6E-34">
          <mxGeometry relative="1" as="geometry" />
        </mxCell>
        <mxCell id="BsSyplJfo_TApb6AKw6E-37" value="" style="edgeStyle=orthogonalEdgeStyle;rounded=0;orthogonalLoop=1;jettySize=auto;html=1;strokeColor=#99CCFF;strokeWidth=2;" edge="1" parent="BsSyplJfo_TApb6AKw6E-6" source="BsSyplJfo_TApb6AKw6E-34" target="BsSyplJfo_TApb6AKw6E-36">
          <mxGeometry relative="1" as="geometry" />
        </mxCell>
        <mxCell id="BsSyplJfo_TApb6AKw6E-38" value="&lt;font color=&quot;#13ec5f&quot;&gt;SI&lt;/font&gt;" style="edgeLabel;html=1;align=center;verticalAlign=middle;resizable=0;points=[];" vertex="1" connectable="0" parent="BsSyplJfo_TApb6AKw6E-37">
          <mxGeometry x="0.0667" y="1" relative="1" as="geometry">
            <mxPoint as="offset" />
          </mxGeometry>
        </mxCell>
        <mxCell id="BsSyplJfo_TApb6AKw6E-41" value="" style="edgeStyle=orthogonalEdgeStyle;rounded=0;orthogonalLoop=1;jettySize=auto;html=1;" edge="1" parent="BsSyplJfo_TApb6AKw6E-6" source="BsSyplJfo_TApb6AKw6E-34" target="BsSyplJfo_TApb6AKw6E-40">
          <mxGeometry relative="1" as="geometry">
            <Array as="points">
              <mxPoint x="180" y="475" />
            </Array>
          </mxGeometry>
        </mxCell>
        <mxCell id="BsSyplJfo_TApb6AKw6E-42" value="NO" style="edgeLabel;html=1;align=center;verticalAlign=middle;resizable=0;points=[];" vertex="1" connectable="0" parent="BsSyplJfo_TApb6AKw6E-41">
          <mxGeometry x="-0.0667" y="-3" relative="1" as="geometry">
            <mxPoint as="offset" />
          </mxGeometry>
        </mxCell>
        <mxCell id="BsSyplJfo_TApb6AKw6E-21" value="" style="endArrow=classic;html=1;rounded=0;strokeWidth=2;strokeColor=#99CCFF;entryX=0.5;entryY=0;entryDx=0;entryDy=0;" edge="1" parent="1" target="BsSyplJfo_TApb6AKw6E-16">
          <mxGeometry width="50" height="50" relative="1" as="geometry">
            <mxPoint x="460" y="170" as="sourcePoint" />
            <mxPoint x="470" y="160" as="targetPoint" />
          </mxGeometry>
        </mxCell>
      </root>
    </mxGraphModel>
  </diagram>
</mxfile>
